<?xml version="1.0" encoding="utf-8" ?>
<svg baseProfile="full" height="57.5mm" version="1.1" viewBox="0,0,306.20000000000005,57.5" width="306.20000000000005mm" xmlns="http://www.w3.org/2000/svg" xmlns:ev="http://www.w3.org/2001/xml-events" xmlns:xlink="http://www.w3.org/1999/xlink"><defs /><rect fill="#FFFFFF" height="57.5" width="306.20000000000005" x="0" y="0" /><text fill="#000000" style="font-size:6px; font-family:Arial; font-weight:bold;" x="10" y="10">言仲</text><text fill="#000000" style="font-size:3px; font-family:Arial;" x="10" y="14.4">2024: 260 hours</text><text fill="#000000" style="font-size:2.5px; font-family:Arial" x="10" y="18.3">Jan</text><rect fill="#549F57" height="4" rx="1" ry="1" width="4" x="10" y="19.7"><title>2024-01-01 246.97 mins</title></rect><rect fill="#549F57" height="4" rx="1" ry="1" width="4" x="10" y="25.1"><title>2024-01-02 226.2 mins</title></rect><rect fill="#68c06d" height="4" rx="1" ry="1" width="4" x="10" y="30.5"><title>2024-01-03 28.92 mins</title></rect><rect fill="#65bd6a" height="4" rx="1" ry="1" width="4" x="10" y="35.9"><title>2024-01-04 78.77 mins</title></rect><rect fill="#ace7ae" height="4" rx="1" ry="1" width="4" x="10" y="41.300000000000004"><title>2024-01-05 0.62 mins</title></rect><rect fill="#68c06d" height="4" rx="1" ry="1" width="4" x="10" y="46.699999999999996"><title>2024-01-06 29.78 mins</title></rect><rect fill="#549F57" height="4" rx="1" ry="1" width="4" x="10" y="52.1"><title>2024-01-07 211.57 mins</title></rect><rect fill="#549F57" height="4" rx="1" ry="1" width="4" x="15.4" y="19.7"><title>2024-01-08 283.18 mins</title></rect><rect fill="#549F57" height="4" rx="1" ry="1" width="4" x="15.4" y="25.1"><title>2024-01-09 96.3 mins</title></rect><rect fill="#549F57" height="4" rx="1" ry="1" width="4" x="15.4" y="30.5"><title>2024-01-10 181.78 mins</title></rect><rect fill="#abe7ad" height="4" rx="1" ry="1" width="4" x="15.4" y="35.9"><title>2024-01-11 2.78 mins</title></rect><rect fill="#ace7ae" height="4" rx="1" ry="1" width="4" x="15.4" y="41.300000000000004"><title>2024-01-12 2.6 mins</title></rect><rect fill="#65bd6a" height="4" rx="1" ry="1" width="4" x="15.4" y="46.699999999999996"><title>2024-01-13 76.88 mins</title></rect><rect fill="#67bf6c" height="4" rx="1" ry="1" width="4" x="15.4" y="52.1"><title>2024-01-14 34.13 mins</title></rect><rect fill="#549F57" height="4" rx="1" ry="1" width="4" x="20.8" y="19.7"><title>2024-01-15 183.58 mins</title></rect><rect fill="#549F57" height="4" rx="1" ry="1" width="4" x="20.8" y="25.1"><title>2024-01-16 112.95 mins</title></rect><rect fill="#66be6a" height="4" rx="1" ry="1" width="4" x="20.8" y="30.5"><title>2024-01-17 74.03 mins</title></rect><rect fill="#66be6b" height="4" rx="1" ry="1" width="4" x="20.8" y="35.9"><title>2024-01-18 63.47 mins</title></rect><rect fill="#abe7ad" height="4" rx="1" ry="1" width="4" x="20.8" y="41.300000000000004"><title>2024-01-19 3.77 mins</title></rect><rect fill="#abe7ad" height="4" rx="1" ry="1" width="4" x="20.8" y="46.699999999999996"><title>2024-01-20 5.17 mins</title></rect><rect fill="#a9e6ac" height="4" rx="1" ry="1" width="4" x="20.8" y="52.1"><title>2024-01-21 13.43 mins</title></rect><rect fill="#a9e6ac" height="4" rx="1" ry="1" width="4" x="26.200000000000003" y="19.7"><title>2024-01-22 13.43 mins</title></rect><rect fill="#aae6ac" height="4" rx="1" ry="1" width="4" x="26.200000000000003" y="25.1"><title>2024-01-23 12.78 mins</title></rect><rect fill="#abe7ad" height="4" rx="1" ry="1" width="4" x="26.200000000000003" y="30.5"><title>2024-01-24 3.57 mins</title></rect><rect fill="#67bf6b" height="4" rx="1" ry="1" width="4" x="26.200000000000003" y="35.9"><title>2024-01-25 51.05 mins</title></rect><rect fill="#a8e5aa" height="4" rx="1" ry="1" width="4" x="26.200000000000003" y="41.300000000000004"><title>2024-01-26 22.62 mins</title></rect><rect fill="#aae6ad" height="4" rx="1" ry="1" width="4" x="26.200000000000003" y="46.699999999999996"><title>2024-01-27 8.08 mins</title></rect><rect fill="#a9e6ab" height="4" rx="1" ry="1" width="4" x="26.200000000000003" y="52.1"><title>2024-01-28 15.1 mins</title></rect><rect fill="#EBEDF0" height="4" rx="1" ry="1" width="4" x="31.6" y="19.7"><title>2024-01-29</title></rect><rect fill="#549F57" height="4" rx="1" ry="1" width="4" x="31.6" y="25.1"><title>2024-01-30 139.53 mins</title></rect><rect fill="#66be6b" height="4" rx="1" ry="1" width="4" x="31.6" y="30.5"><title>2024-01-31 71.03 mins</title></rect><rect fill="#549F57" height="4" rx="1" ry="1" width="4" x="31.6" y="35.9"><title>2024-02-01 167.53 mins</title></rect><rect fill="#549F57" height="4" rx="1" ry="1" width="4" x="31.6" y="41.300000000000004"><title>2024-02-02 168.35 mins</title></rect><rect fill="#549F57" height="4" rx="1" ry="1" width="4" x="31.6" y="46.699999999999996"><title>2024-02-03 136.4 mins</title></rect><rect fill="#65bd6a" height="4" rx="1" ry="1" width="4" x="31.6" y="52.1"><title>2024-02-04 78.32 mins</title></rect><text fill="#000000" style="font-size:2.5px; font-family:Arial" x="37.0" y="18.3">Feb</text><rect fill="#549F57" height="4" rx="1" ry="1" width="4" x="37.0" y="19.7"><title>2024-02-05 119.58 mins</title></rect><rect fill="#549F57" height="4" rx="1" ry="1" width="4" x="37.0" y="25.1"><title>2024-02-06 86.58 mins</title></rect><rect fill="#a9e6ab" height="4" rx="1" ry="1" width="4" x="37.0" y="30.5"><title>2024-02-07 15.08 mins</title></rect><rect fill="#549F57" height="4" rx="1" ry="1" width="4" x="37.0" y="35.9"><title>2024-02-08 199.72 mins</title></rect><rect fill="#66be6b" height="4" rx="1" ry="1" width="4" x="37.0" y="41.300000000000004"><title>2024-02-09 66.4 mins</title></rect><rect fill="#549F57" height="4" rx="1" ry="1" width="4" x="37.0" y="46.699999999999996"><title>2024-02-10 304.18 mins</title></rect><rect fill="#67bf6c" height="4" rx="1" ry="1" width="4" x="37.0" y="52.1"><title>2024-02-11 47.88 mins</title></rect><rect fill="#549F57" height="4" rx="1" ry="1" width="4" x="42.4" y="19.7"><title>2024-02-12 114.33 mins</title></rect><rect fill="#549F57" height="4" rx="1" ry="1" width="4" x="42.4" y="25.1"><title>2024-02-13 261.38 mins</title></rect><rect fill="#68c06c" height="4" rx="1" ry="1" width="4" x="42.4" y="30.5"><title>2024-02-14 31.95 mins</title></rect><rect fill="#549F57" height="4" rx="1" ry="1" width="4" x="42.4" y="35.9"><title>2024-02-15 82.87 mins</title></rect><rect fill="#67bf6c" height="4" rx="1" ry="1" width="4" x="42.4" y="41.300000000000004"><title>2024-02-16 37.17 mins</title></rect><rect fill="#549F57" height="4" rx="1" ry="1" width="4" x="42.4" y="46.699999999999996"><title>2024-02-17 104.7 mins</title></rect><rect fill="#67bf6c" height="4" rx="1" ry="1" width="4" x="42.4" y="52.1"><title>2024-02-18 47.15 mins</title></rect><rect fill="#a9e6ab" height="4" rx="1" ry="1" width="4" x="47.8" y="19.7"><title>2024-02-19 17.18 mins</title></rect><rect fill="#549F57" height="4" rx="1" ry="1" width="4" x="47.8" y="25.1"><title>2024-02-20 156.35 mins</title></rect><rect fill="#549F57" height="4" rx="1" ry="1" width="4" x="47.8" y="30.5"><title>2024-02-21 143.92 mins</title></rect><rect fill="#549F57" height="4" rx="1" ry="1" width="4" x="47.8" y="35.9"><title>2024-02-22 143.05 mins</title></rect><rect fill="#66be6b" height="4" rx="1" ry="1" width="4" x="47.8" y="41.300000000000004"><title>2024-02-23 57.4 mins</title></rect><rect fill="#aae6ac" height="4" rx="1" ry="1" width="4" x="47.8" y="46.699999999999996"><title>2024-02-24 11.68 mins</title></rect><rect fill="#549F57" height="4" rx="1" ry="1" width="4" x="47.8" y="52.1"><title>2024-02-25 104.77 mins</title></rect><rect fill="#549F57" height="4" rx="1" ry="1" width="4" x="53.199999999999996" y="19.7"><title>2024-02-26 113.18 mins</title></rect><rect fill="#549F57" height="4" rx="1" ry="1" width="4" x="53.199999999999996" y="25.1"><title>2024-02-27 340.65 mins</title></rect><rect fill="#67bf6c" height="4" rx="1" ry="1" width="4" x="53.199999999999996" y="30.5"><title>2024-02-28 43.0 mins</title></rect><rect fill="#549F57" height="4" rx="1" ry="1" width="4" x="53.199999999999996" y="35.9"><title>2024-02-29 289.78 mins</title></rect><rect fill="#67bf6c" height="4" rx="1" ry="1" width="4" x="53.199999999999996" y="41.300000000000004"><title>2024-03-01 39.73 mins</title></rect><rect fill="#a7e5a9" height="4" rx="1" ry="1" width="4" x="53.199999999999996" y="46.699999999999996"><title>2024-03-02 25.25 mins</title></rect><rect fill="#549F57" height="4" rx="1" ry="1" width="4" x="53.199999999999996" y="52.1"><title>2024-03-03 259.63 mins</title></rect><text fill="#000000" style="font-size:2.5px; font-family:Arial" x="58.599999999999994" y="18.3">Mar</text><rect fill="#549F57" height="4" rx="1" ry="1" width="4" x="58.599999999999994" y="19.7"><title>2024-03-04 239.53 mins</title></rect><rect fill="#a8e5aa" height="4" rx="1" ry="1" width="4" x="58.599999999999994" y="25.1"><title>2024-03-05 21.72 mins</title></rect><rect fill="#66be6b" height="4" rx="1" ry="1" width="4" x="58.599999999999994" y="30.5"><title>2024-03-06 61.17 mins</title></rect><rect fill="#67bf6c" height="4" rx="1" ry="1" width="4" x="58.599999999999994" y="35.9"><title>2024-03-07 36.23 mins</title></rect><rect fill="#67bf6c" height="4" rx="1" ry="1" width="4" x="58.599999999999994" y="41.300000000000004"><title>2024-03-08 49.88 mins</title></rect><rect fill="#67bf6c" height="4" rx="1" ry="1" width="4" x="58.599999999999994" y="46.699999999999996"><title>2024-03-09 42.17 mins</title></rect><rect fill="#abe7ad" height="4" rx="1" ry="1" width="4" x="58.599999999999994" y="52.1"><title>2024-03-10 4.2 mins</title></rect><rect fill="#67bf6c" height="4" rx="1" ry="1" width="4" x="63.99999999999999" y="19.7"><title>2024-03-11 41.62 mins</title></rect><rect fill="#67be6b" height="4" rx="1" ry="1" width="4" x="63.99999999999999" y="25.1"><title>2024-03-12 53.67 mins</title></rect><rect fill="#ace7ae" height="4" rx="1" ry="1" width="4" x="63.99999999999999" y="30.5"><title>2024-03-13 0.55 mins</title></rect><rect fill="#a7e5a9" height="4" rx="1" ry="1" width="4" x="63.99999999999999" y="35.9"><title>2024-03-14 24.85 mins</title></rect><rect fill="#67bf6c" height="4" rx="1" ry="1" width="4" x="63.99999999999999" y="41.300000000000004"><title>2024-03-15 50.48 mins</title></rect><rect fill="#ace7ae" height="4" rx="1" ry="1" width="4" x="63.99999999999999" y="46.699999999999996"><title>2024-03-16 0.97 mins</title></rect><rect fill="#67bf6c" height="4" rx="1" ry="1" width="4" x="63.99999999999999" y="52.1"><title>2024-03-17 42.75 mins</title></rect><rect fill="#67bf6c" height="4" rx="1" ry="1" width="4" x="69.39999999999999" y="19.7"><title>2024-03-18 34.4 mins</title></rect><rect fill="#aae6ac" height="4" rx="1" ry="1" width="4" x="69.39999999999999" y="25.1"><title>2024-03-19 8.65 mins</title></rect><rect fill="#a8e5aa" height="4" rx="1" ry="1" width="4" x="69.39999999999999" y="30.5"><title>2024-03-20 23.42 mins</title></rect><rect fill="#67bf6c" height="4" rx="1" ry="1" width="4" x="69.39999999999999" y="35.9"><title>2024-03-21 49.23 mins</title></rect><rect fill="#67bf6c" height="4" rx="1" ry="1" width="4" x="69.39999999999999" y="41.300000000000004"><title>2024-03-22 36.77 mins</title></rect><rect fill="#aae6ac" height="4" rx="1" ry="1" width="4" x="69.39999999999999" y="46.699999999999996"><title>2024-03-23 9.67 mins</title></rect><rect fill="#ace7ae" height="4" rx="1" ry="1" width="4" x="69.39999999999999" y="52.1"><title>2024-03-24 2.62 mins</title></rect><rect fill="#549F57" height="4" rx="1" ry="1" width="4" x="74.8" y="19.7"><title>2024-03-25 96.62 mins</title></rect><rect fill="#aae6ac" height="4" rx="1" ry="1" width="4" x="74.8" y="25.1"><title>2024-03-26 9.77 mins</title></rect><rect fill="#67bf6c" height="4" rx="1" ry="1" width="4" x="74.8" y="30.5"><title>2024-03-27 47.4 mins</title></rect><rect fill="#67bf6c" height="4" rx="1" ry="1" width="4" x="74.8" y="35.9"><title>2024-03-28 35.7 mins</title></rect><rect fill="#a9e6ab" height="4" rx="1" ry="1" width="4" x="74.8" y="41.300000000000004"><title>2024-03-29 15.38 mins</title></rect><rect fill="#a9e5ab" height="4" rx="1" ry="1" width="4" x="74.8" y="46.699999999999996"><title>2024-03-30 18.43 mins</title></rect><rect fill="#ace7ae" height="4" rx="1" ry="1" width="4" x="74.8" y="52.1"><title>2024-03-31 1.45 mins</title></rect><text fill="#000000" style="font-size:2.5px; font-family:Arial" x="80.2" y="18.3">Apr</text><rect fill="#ace7ae" height="4" rx="1" ry="1" width="4" x="80.2" y="19.7"><title>2024-04-01 0.28 mins</title></rect><rect fill="#a7e5a9" height="4" rx="1" ry="1" width="4" x="80.2" y="25.1"><title>2024-04-02 25.12 mins</title></rect><rect fill="#a7e5a9" height="4" rx="1" ry="1" width="4" x="80.2" y="30.5"><title>2024-04-03 25.18 mins</title></rect><rect fill="#549F57" height="4" rx="1" ry="1" width="4" x="80.2" y="35.9"><title>2024-04-04 93.68 mins</title></rect><rect fill="#549F57" height="4" rx="1" ry="1" width="4" x="80.2" y="41.300000000000004"><title>2024-04-05 587.78 mins</title></rect><rect fill="#a9e6ab" height="4" rx="1" ry="1" width="4" x="80.2" y="46.699999999999996"><title>2024-04-06 16.28 mins</title></rect><rect fill="#67bf6c" height="4" rx="1" ry="1" width="4" x="80.2" y="52.1"><title>2024-04-07 49.55 mins</title></rect><rect fill="#abe6ad" height="4" rx="1" ry="1" width="4" x="85.60000000000001" y="19.7"><title>2024-04-08 7.45 mins</title></rect><rect fill="#68c06d" height="4" rx="1" ry="1" width="4" x="85.60000000000001" y="25.1"><title>2024-04-09 28.52 mins</title></rect><rect fill="#aae6ac" height="4" rx="1" ry="1" width="4" x="85.60000000000001" y="30.5"><title>2024-04-10 11.72 mins</title></rect><rect fill="#a9e6ab" height="4" rx="1" ry="1" width="4" x="85.60000000000001" y="35.9"><title>2024-04-11 17.48 mins</title></rect><rect fill="#a9e5ab" height="4" rx="1" ry="1" width="4" x="85.60000000000001" y="41.300000000000004"><title>2024-04-12 18.42 mins</title></rect><rect fill="#abe7ad" height="4" rx="1" ry="1" width="4" x="85.60000000000001" y="46.699999999999996"><title>2024-04-13 5.52 mins</title></rect><rect fill="#a7e5a9" height="4" rx="1" ry="1" width="4" x="85.60000000000001" y="52.1"><title>2024-04-14 26.0 mins</title></rect><rect fill="#ace7ae" height="4" rx="1" ry="1" width="4" x="91.00000000000001" y="19.7"><title>2024-04-15 1.72 mins</title></rect><rect fill="#abe7ad" height="4" rx="1" ry="1" width="4" x="91.00000000000001" y="25.1"><title>2024-04-16 5.98 mins</title></rect><rect fill="#ace7ae" height="4" rx="1" ry="1" width="4" x="91.00000000000001" y="30.5"><title>2024-04-17 0.07 mins</title></rect><rect fill="#67bf6c" height="4" rx="1" ry="1" width="4" x="91.00000000000001" y="35.9"><title>2024-04-18 39.35 mins</title></rect><rect fill="#549F57" height="4" rx="1" ry="1" width="4" x="91.00000000000001" y="41.300000000000004"><title>2024-04-19 94.8 mins</title></rect><rect fill="#a9e6ab" height="4" rx="1" ry="1" width="4" x="91.00000000000001" y="46.699999999999996"><title>2024-04-20 13.67 mins</title></rect><rect fill="#ace7ae" height="4" rx="1" ry="1" width="4" x="91.00000000000001" y="52.1"><title>2024-04-21 0.75 mins</title></rect><rect fill="#ace7ae" height="4" rx="1" ry="1" width="4" x="96.40000000000002" y="19.7"><title>2024-04-22 0.65 mins</title></rect><rect fill="#a9e6ac" height="4" rx="1" ry="1" width="4" x="96.40000000000002" y="25.1"><title>2024-04-23 13.53 mins</title></rect><rect fill="#ace7ae" height="4" rx="1" ry="1" width="4" x="96.40000000000002" y="30.5"><title>2024-04-24 0.03 mins</title></rect><rect fill="#ace7ae" height="4" rx="1" ry="1" width="4" x="96.40000000000002" y="35.9"><title>2024-04-25 0.05 mins</title></rect><rect fill="#a9e6ab" height="4" rx="1" ry="1" width="4" x="96.40000000000002" y="41.300000000000004"><title>2024-04-26 13.68 mins</title></rect><rect fill="#aae6ac" height="4" rx="1" ry="1" width="4" x="96.40000000000002" y="46.699999999999996"><title>2024-04-27 12.6 mins</title></rect><rect fill="#ace7ae" height="4" rx="1" ry="1" width="4" x="96.40000000000002" y="52.1"><title>2024-04-28 0.02 mins</title></rect><rect fill="#ace7ae" height="4" rx="1" ry="1" width="4" x="101.80000000000003" y="19.7"><title>2024-04-29 1.2 mins</title></rect><rect fill="#ace7ae" height="4" rx="1" ry="1" width="4" x="101.80000000000003" y="25.1"><title>2024-04-30 0.65 mins</title></rect><rect fill="#ace7ae" height="4" rx="1" ry="1" width="4" x="101.80000000000003" y="30.5"><title>2024-05-01 0.02 mins</title></rect><rect fill="#ace7ae" height="4" rx="1" ry="1" width="4" x="101.80000000000003" y="35.9"><title>2024-05-02 0.03 mins</title></rect><rect fill="#67bf6c" height="4" rx="1" ry="1" width="4" x="101.80000000000003" y="41.300000000000004"><title>2024-05-03 36.22 mins</title></rect><rect fill="#67bf6c" height="4" rx="1" ry="1" width="4" x="101.80000000000003" y="46.699999999999996"><title>2024-05-04 34.23 mins</title></rect><rect fill="#549F57" height="4" rx="1" ry="1" width="4" x="101.80000000000003" y="52.1"><title>2024-05-05 321.43 mins</title></rect><text fill="#000000" style="font-size:2.5px; font-family:Arial" x="107.20000000000003" y="18.3">May</text><rect fill="#66be6a" height="4" rx="1" ry="1" width="4" x="107.20000000000003" y="19.7"><title>2024-05-06 73.8 mins</title></rect><rect fill="#549F57" height="4" rx="1" ry="1" width="4" x="107.20000000000003" y="25.1"><title>2024-05-07 202.72 mins</title></rect><rect fill="#549F57" height="4" rx="1" ry="1" width="4" x="107.20000000000003" y="30.5"><title>2024-05-08 208.05 mins</title></rect><rect fill="#549F57" height="4" rx="1" ry="1" width="4" x="107.20000000000003" y="35.9"><title>2024-05-09 182.92 mins</title></rect><rect fill="#549F57" height="4" rx="1" ry="1" width="4" x="107.20000000000003" y="41.300000000000004"><title>2024-05-10 100.9 mins</title></rect><rect fill="#549F57" height="4" rx="1" ry="1" width="4" x="107.20000000000003" y="46.699999999999996"><title>2024-05-11 115.73 mins</title></rect><rect fill="#549F57" height="4" rx="1" ry="1" width="4" x="107.20000000000003" y="52.1"><title>2024-05-12 80.68 mins</title></rect><rect fill="#549F57" height="4" rx="1" ry="1" width="4" x="112.60000000000004" y="19.7"><title>2024-05-13 81.38 mins</title></rect><rect fill="#67bf6c" height="4" rx="1" ry="1" width="4" x="112.60000000000004" y="25.1"><title>2024-05-14 34.77 mins</title></rect><rect fill="#67bf6c" height="4" rx="1" ry="1" width="4" x="112.60000000000004" y="30.5"><title>2024-05-15 38.72 mins</title></rect><rect fill="#549F57" height="4" rx="1" ry="1" width="4" x="112.60000000000004" y="35.9"><title>2024-05-16 256.23 mins</title></rect><rect fill="#66be6b" height="4" rx="1" ry="1" width="4" x="112.60000000000004" y="41.300000000000004"><title>2024-05-17 62.17 mins</title></rect><rect fill="#67bf6c" height="4" rx="1" ry="1" width="4" x="112.60000000000004" y="46.699999999999996"><title>2024-05-18 47.88 mins</title></rect><rect fill="#549F57" height="4" rx="1" ry="1" width="4" x="112.60000000000004" y="52.1"><title>2024-05-19 96.72 mins</title></rect><rect fill="#a7e5a9" height="4" rx="1" ry="1" width="4" x="118.00000000000004" y="19.7"><title>2024-05-20 25.18 mins</title></rect><rect fill="#abe6ad" height="4" rx="1" ry="1" width="4" x="118.00000000000004" y="25.1"><title>2024-05-21 6.5 mins</title></rect><rect fill="#aae6ac" height="4" rx="1" ry="1" width="4" x="118.00000000000004" y="30.5"><title>2024-05-22 10.63 mins</title></rect><rect fill="#a9e5ab" height="4" rx="1" ry="1" width="4" x="118.00000000000004" y="35.9"><title>2024-05-23 17.92 mins</title></rect><rect fill="#abe7ad" height="4" rx="1" ry="1" width="4" x="118.00000000000004" y="41.300000000000004"><title>2024-05-24 5.42 mins</title></rect><rect fill="#ace7ae" height="4" rx="1" ry="1" width="4" x="118.00000000000004" y="46.699999999999996"><title>2024-05-25 2.35 mins</title></rect><rect fill="#ace7ae" height="4" rx="1" ry="1" width="4" x="118.00000000000004" y="52.1"><title>2024-05-26 0.22 mins</title></rect><rect fill="#ace7ae" height="4" rx="1" ry="1" width="4" x="123.40000000000005" y="19.7"><title>2024-05-27 0.18 mins</title></rect><rect fill="#abe7ad" height="4" rx="1" ry="1" width="4" x="123.40000000000005" y="25.1"><title>2024-05-28 2.97 mins</title></rect><rect fill="#ace7ae" height="4" rx="1" ry="1" width="4" x="123.40000000000005" y="30.5"><title>2024-05-29 0.03 mins</title></rect><rect fill="#ace7ae" height="4" rx="1" ry="1" width="4" x="123.40000000000005" y="35.9"><title>2024-05-30 0.72 mins</title></rect><rect fill="#ace7ae" height="4" rx="1" ry="1" width="4" x="123.40000000000005" y="41.300000000000004"><title>2024-05-31 0.52 mins</title></rect><rect fill="#aae6ac" height="4" rx="1" ry="1" width="4" x="123.40000000000005" y="46.699999999999996"><title>2024-06-01 9.45 mins</title></rect><rect fill="#abe6ad" height="4" rx="1" ry="1" width="4" x="123.40000000000005" y="52.1"><title>2024-06-02 6.32 mins</title></rect><text fill="#000000" style="font-size:2.5px; font-family:Arial" x="128.80000000000004" y="18.3">Jun</text><rect fill="#66be6b" height="4" rx="1" ry="1" width="4" x="128.80000000000004" y="19.7"><title>2024-06-03 66.52 mins</title></rect><rect fill="#67bf6c" height="4" rx="1" ry="1" width="4" x="128.80000000000004" y="25.1"><title>2024-06-04 37.05 mins</title></rect><rect fill="#67bf6c" height="4" rx="1" ry="1" width="4" x="128.80000000000004" y="30.5"><title>2024-06-05 47.17 mins</title></rect><rect fill="#a7e5a9" height="4" rx="1" ry="1" width="4" x="128.80000000000004" y="35.9"><title>2024-06-06 24.95 mins</title></rect><rect fill="#ace7ae" height="4" rx="1" ry="1" width="4" x="128.80000000000004" y="41.300000000000004"><title>2024-06-07 0.03 mins</title></rect><rect fill="#ace7ae" height="4" rx="1" ry="1" width="4" x="128.80000000000004" y="46.699999999999996"><title>2024-06-08 0.02 mins</title></rect><rect fill="#66be6b" height="4" rx="1" ry="1" width="4" x="128.80000000000004" y="52.1"><title>2024-06-09 61.38 mins</title></rect><rect fill="#ace7ae" height="4" rx="1" ry="1" width="4" x="134.20000000000005" y="19.7"><title>2024-06-10 0.17 mins</title></rect><rect fill="#abe6ad" height="4" rx="1" ry="1" width="4" x="134.20000000000005" y="25.1"><title>2024-06-11 7.0 mins</title></rect><rect fill="#65bd6a" height="4" rx="1" ry="1" width="4" x="134.20000000000005" y="30.5"><title>2024-06-12 77.72 mins</title></rect><rect fill="#67bf6c" height="4" rx="1" ry="1" width="4" x="134.20000000000005" y="35.9"><title>2024-06-13 38.38 mins</title></rect><rect fill="#67bf6c" height="4" rx="1" ry="1" width="4" x="134.20000000000005" y="41.300000000000004"><title>2024-06-14 33.25 mins</title></rect><rect fill="#549F57" height="4" rx="1" ry="1" width="4" x="134.20000000000005" y="46.699999999999996"><title>2024-06-15 201.17 mins</title></rect><rect fill="#549F57" height="4" rx="1" ry="1" width="4" x="134.20000000000005" y="52.1"><title>2024-06-16 103.58 mins</title></rect><rect fill="#67bf6c" height="4" rx="1" ry="1" width="4" x="139.60000000000005" y="19.7"><title>2024-06-17 37.73 mins</title></rect><rect fill="#aae6ac" height="4" rx="1" ry="1" width="4" x="139.60000000000005" y="25.1"><title>2024-06-18 9.7 mins</title></rect><rect fill="#67bf6c" height="4" rx="1" ry="1" width="4" x="139.60000000000005" y="30.5"><title>2024-06-19 38.75 mins</title></rect><rect fill="#abe6ad" height="4" rx="1" ry="1" width="4" x="139.60000000000005" y="35.9"><title>2024-06-20 6.37 mins</title></rect><rect fill="#67bf6c" height="4" rx="1" ry="1" width="4" x="139.60000000000005" y="41.300000000000004"><title>2024-06-21 43.95 mins</title></rect><rect fill="#67bf6c" height="4" rx="1" ry="1" width="4" x="139.60000000000005" y="46.699999999999996"><title>2024-06-22 49.63 mins</title></rect><rect fill="#66be6b" height="4" rx="1" ry="1" width="4" x="139.60000000000005" y="52.1"><title>2024-06-23 61.07 mins</title></rect><rect fill="#a8e5aa" height="4" rx="1" ry="1" width="4" x="145.00000000000006" y="19.7"><title>2024-06-24 21.47 mins</title></rect><rect fill="#a8e5aa" height="4" rx="1" ry="1" width="4" x="145.00000000000006" y="25.1"><title>2024-06-25 20.87 mins</title></rect><rect fill="#a7e5a9" height="4" rx="1" ry="1" width="4" x="145.00000000000006" y="30.5"><title>2024-06-26 26.03 mins</title></rect><rect fill="#a8e5aa" height="4" rx="1" ry="1" width="4" x="145.00000000000006" y="35.9"><title>2024-06-27 22.83 mins</title></rect><rect fill="#67bf6c" height="4" rx="1" ry="1" width="4" x="145.00000000000006" y="41.300000000000004"><title>2024-06-28 47.15 mins</title></rect><rect fill="#549F57" height="4" rx="1" ry="1" width="4" x="145.00000000000006" y="46.699999999999996"><title>2024-06-29 126.25 mins</title></rect><rect fill="#a7e5a9" height="4" rx="1" ry="1" width="4" x="145.00000000000006" y="52.1"><title>2024-06-30 26.45 mins</title></rect><text fill="#000000" style="font-size:2.5px; font-family:Arial" x="150.40000000000006" y="18.3">Jul</text><rect fill="#67bf6c" height="4" rx="1" ry="1" width="4" x="150.40000000000006" y="19.7"><title>2024-07-01 44.87 mins</title></rect><rect fill="#66be6a" height="4" rx="1" ry="1" width="4" x="150.40000000000006" y="25.1"><title>2024-07-02 72.45 mins</title></rect><rect fill="#a7e5a9" height="4" rx="1" ry="1" width="4" x="150.40000000000006" y="30.5"><title>2024-07-03 26.6 mins</title></rect><rect fill="#549F57" height="4" rx="1" ry="1" width="4" x="150.40000000000006" y="35.9"><title>2024-07-04 147.62 mins</title></rect><rect fill="#a8e5aa" height="4" rx="1" ry="1" width="4" x="150.40000000000006" y="41.300000000000004"><title>2024-07-05 23.07 mins</title></rect><rect fill="#67bf6c" height="4" rx="1" ry="1" width="4" x="150.40000000000006" y="46.699999999999996"><title>2024-07-06 44.27 mins</title></rect><rect fill="#67bf6c" height="4" rx="1" ry="1" width="4" x="150.40000000000006" y="52.1"><title>2024-07-07 42.53 mins</title></rect><rect fill="#ace7ae" height="4" rx="1" ry="1" width="4" x="155.80000000000007" y="19.7"><title>2024-07-08 0.05 mins</title></rect><rect fill="#a8e5ab" height="4" rx="1" ry="1" width="4" x="155.80000000000007" y="25.1"><title>2024-07-09 18.93 mins</title></rect><rect fill="#ace7ae" height="4" rx="1" ry="1" width="4" x="155.80000000000007" y="30.5"><title>2024-07-10 0.05 mins</title></rect><rect fill="#ace7ae" height="4" rx="1" ry="1" width="4" x="155.80000000000007" y="35.9"><title>2024-07-11 0.13 mins</title></rect><rect fill="#abe7ad" height="4" rx="1" ry="1" width="4" x="155.80000000000007" y="41.300000000000004"><title>2024-07-12 4.83 mins</title></rect><rect fill="#aae6ac" height="4" rx="1" ry="1" width="4" x="155.80000000000007" y="46.699999999999996"><title>2024-07-13 9.4 mins</title></rect><rect fill="#abe6ad" height="4" rx="1" ry="1" width="4" x="155.80000000000007" y="52.1"><title>2024-07-14 6.6 mins</title></rect><rect fill="#67bf6c" height="4" rx="1" ry="1" width="4" x="161.20000000000007" y="19.7"><title>2024-07-15 33.08 mins</title></rect><rect fill="#aae6ac" height="4" rx="1" ry="1" width="4" x="161.20000000000007" y="25.1"><title>2024-07-16 11.68 mins</title></rect><rect fill="#a7e5a9" height="4" rx="1" ry="1" width="4" x="161.20000000000007" y="30.5"><title>2024-07-17 25.13 mins</title></rect><rect fill="#aae6ac" height="4" rx="1" ry="1" width="4" x="161.20000000000007" y="35.9"><title>2024-07-18 13.33 mins</title></rect><rect fill="#a7e5a9" height="4" rx="1" ry="1" width="4" x="161.20000000000007" y="41.300000000000004"><title>2024-07-19 26.9 mins</title></rect><rect fill="#aae6ac" height="4" rx="1" ry="1" width="4" x="161.20000000000007" y="46.699999999999996"><title>2024-07-20 13.07 mins</title></rect><rect fill="#abe7ad" height="4" rx="1" ry="1" width="4" x="161.20000000000007" y="52.1"><title>2024-07-21 4.2 mins</title></rect><rect fill="#67bf6c" height="4" rx="1" ry="1" width="4" x="166.60000000000008" y="19.7"><title>2024-07-22 47.27 mins</title></rect><rect fill="#67bf6c" height="4" rx="1" ry="1" width="4" x="166.60000000000008" y="25.1"><title>2024-07-23 34.13 mins</title></rect><rect fill="#68c06d" height="4" rx="1" ry="1" width="4" x="166.60000000000008" y="30.5"><title>2024-07-24 29.88 mins</title></rect><rect fill="#abe6ad" height="4" rx="1" ry="1" width="4" x="166.60000000000008" y="35.9"><title>2024-07-25 6.58 mins</title></rect><rect fill="#abe7ad" height="4" rx="1" ry="1" width="4" x="166.60000000000008" y="41.300000000000004"><title>2024-07-26 3.7 mins</title></rect><rect fill="#a9e6ab" height="4" rx="1" ry="1" width="4" x="166.60000000000008" y="46.699999999999996"><title>2024-07-27 16.15 mins</title></rect><rect fill="#ace7ae" height="4" rx="1" ry="1" width="4" x="166.60000000000008" y="52.1"><title>2024-07-28 1.53 mins</title></rect><rect fill="#ace7ae" height="4" rx="1" ry="1" width="4" x="172.00000000000009" y="19.7"><title>2024-07-29 0.12 mins</title></rect><rect fill="#a7e5a9" height="4" rx="1" ry="1" width="4" x="172.00000000000009" y="25.1"><title>2024-07-30 26.83 mins</title></rect><rect fill="#67bf6c" height="4" rx="1" ry="1" width="4" x="172.00000000000009" y="30.5"><title>2024-07-31 45.27 mins</title></rect><rect fill="#a8e5aa" height="4" rx="1" ry="1" width="4" x="172.00000000000009" y="35.9"><title>2024-08-01 23.27 mins</title></rect><rect fill="#68c06d" height="4" rx="1" ry="1" width="4" x="172.00000000000009" y="41.300000000000004"><title>2024-08-02 28.62 mins</title></rect><rect fill="#68c06d" height="4" rx="1" ry="1" width="4" x="172.00000000000009" y="46.699999999999996"><title>2024-08-03 27.88 mins</title></rect><rect fill="#67bf6c" height="4" rx="1" ry="1" width="4" x="172.00000000000009" y="52.1"><title>2024-08-04 45.33 mins</title></rect><text fill="#000000" style="font-size:2.5px; font-family:Arial" x="177.4000000000001" y="18.3">Aug</text><rect fill="#66be6b" height="4" rx="1" ry="1" width="4" x="177.4000000000001" y="19.7"><title>2024-08-05 63.97 mins</title></rect><rect fill="#aae6ac" height="4" rx="1" ry="1" width="4" x="177.4000000000001" y="25.1"><title>2024-08-06 13.08 mins</title></rect><rect fill="#a8e5aa" height="4" rx="1" ry="1" width="4" x="177.4000000000001" y="30.5"><title>2024-08-07 23.3 mins</title></rect><rect fill="#abe7ad" height="4" rx="1" ry="1" width="4" x="177.4000000000001" y="35.9"><title>2024-08-08 3.47 mins</title></rect><rect fill="#66bd6a" height="4" rx="1" ry="1" width="4" x="177.4000000000001" y="41.300000000000004"><title>2024-08-09 75.15 mins</title></rect><rect fill="#68c06c" height="4" rx="1" ry="1" width="4" x="177.4000000000001" y="46.699999999999996"><title>2024-08-10 30.58 mins</title></rect><rect fill="#68c06d" height="4" rx="1" ry="1" width="4" x="177.4000000000001" y="52.1"><title>2024-08-11 28.12 mins</title></rect><rect fill="#67bf6c" height="4" rx="1" ry="1" width="4" x="182.8000000000001" y="19.7"><title>2024-08-12 43.75 mins</title></rect><rect fill="#68c06c" height="4" rx="1" ry="1" width="4" x="182.8000000000001" y="25.1"><title>2024-08-13 30.93 mins</title></rect><rect fill="#abe7ae" height="4" rx="1" ry="1" width="4" x="182.8000000000001" y="30.5"><title>2024-08-14 2.72 mins</title></rect><rect fill="#abe6ad" height="4" rx="1" ry="1" width="4" x="182.8000000000001" y="35.9"><title>2024-08-15 7.88 mins</title></rect><rect fill="#68c06d" height="4" rx="1" ry="1" width="4" x="182.8000000000001" y="41.300000000000004"><title>2024-08-16 30.45 mins</title></rect><rect fill="#67bf6c" height="4" rx="1" ry="1" width="4" x="182.8000000000001" y="46.699999999999996"><title>2024-08-17 37.83 mins</title></rect><rect fill="#67bf6c" height="4" rx="1" ry="1" width="4" x="182.8000000000001" y="52.1"><title>2024-08-18 35.65 mins</title></rect><rect fill="#66be6b" height="4" rx="1" ry="1" width="4" x="188.2000000000001" y="19.7"><title>2024-08-19 59.4 mins</title></rect><rect fill="#abe6ad" height="4" rx="1" ry="1" width="4" x="188.2000000000001" y="25.1"><title>2024-08-20 7.75 mins</title></rect><rect fill="#ace7ae" height="4" rx="1" ry="1" width="4" x="188.2000000000001" y="30.5"><title>2024-08-21 1.05 mins</title></rect><rect fill="#549F57" height="4" rx="1" ry="1" width="4" x="188.2000000000001" y="35.9"><title>2024-08-22 79.88 mins</title></rect><rect fill="#549F57" height="4" rx="1" ry="1" width="4" x="188.2000000000001" y="41.300000000000004"><title>2024-08-23 79.85 mins</title></rect><rect fill="#a7e5a9" height="4" rx="1" ry="1" width="4" x="188.2000000000001" y="46.699999999999996"><title>2024-08-24 26.4 mins</title></rect><rect fill="#abe6ad" height="4" rx="1" ry="1" width="4" x="188.2000000000001" y="52.1"><title>2024-08-25 6.25 mins</title></rect><rect fill="#aae6ac" height="4" rx="1" ry="1" width="4" x="193.6000000000001" y="19.7"><title>2024-08-26 10.13 mins</title></rect><rect fill="#66be6a" height="4" rx="1" ry="1" width="4" x="193.6000000000001" y="25.1"><title>2024-08-27 73.17 mins</title></rect><rect fill="#65bd6a" height="4" rx="1" ry="1" width="4" x="193.6000000000001" y="30.5"><title>2024-08-28 77.27 mins</title></rect><rect fill="#a9e5ab" height="4" rx="1" ry="1" width="4" x="193.6000000000001" y="35.9"><title>2024-08-29 18.13 mins</title></rect><rect fill="#aae6ac" height="4" rx="1" ry="1" width="4" x="193.6000000000001" y="41.300000000000004"><title>2024-08-30 10.2 mins</title></rect><rect fill="#a9e6ab" height="4" rx="1" ry="1" width="4" x="193.6000000000001" y="46.699999999999996"><title>2024-08-31 14.53 mins</title></rect><rect fill="#549F57" height="4" rx="1" ry="1" width="4" x="193.6000000000001" y="52.1"><title>2024-09-01 97.82 mins</title></rect><text fill="#000000" style="font-size:2.5px; font-family:Arial" x="199.0000000000001" y="18.3">Sep</text><rect fill="#66be6b" height="4" rx="1" ry="1" width="4" x="199.0000000000001" y="19.7"><title>2024-09-02 60.37 mins</title></rect><rect fill="#66be6b" height="4" rx="1" ry="1" width="4" x="199.0000000000001" y="25.1"><title>2024-09-03 61.97 mins</title></rect><rect fill="#66be6b" height="4" rx="1" ry="1" width="4" x="199.0000000000001" y="30.5"><title>2024-09-04 59.42 mins</title></rect><rect fill="#66be6b" height="4" rx="1" ry="1" width="4" x="199.0000000000001" y="35.9"><title>2024-09-05 59.95 mins</title></rect><rect fill="#66be6b" height="4" rx="1" ry="1" width="4" x="199.0000000000001" y="41.300000000000004"><title>2024-09-06 57.15 mins</title></rect><rect fill="#66be6b" height="4" rx="1" ry="1" width="4" x="199.0000000000001" y="46.699999999999996"><title>2024-09-07 57.53 mins</title></rect><rect fill="#ace7ae" height="4" rx="1" ry="1" width="4" x="199.0000000000001" y="52.1"><title>2024-09-08 1.4 mins</title></rect><rect fill="#abe6ad" height="4" rx="1" ry="1" width="4" x="204.40000000000012" y="19.7"><title>2024-09-09 7.35 mins</title></rect><rect fill="#ace7ae" height="4" rx="1" ry="1" width="4" x="204.40000000000012" y="25.1"><title>2024-09-10 2.27 mins</title></rect><rect fill="#aae6ac" height="4" rx="1" ry="1" width="4" x="204.40000000000012" y="30.5"><title>2024-09-11 11.88 mins</title></rect><rect fill="#a8e5aa" height="4" rx="1" ry="1" width="4" x="204.40000000000012" y="35.9"><title>2024-09-12 21.03 mins</title></rect><rect fill="#66be6b" height="4" rx="1" ry="1" width="4" x="204.40000000000012" y="41.300000000000004"><title>2024-09-13 55.62 mins</title></rect><rect fill="#549F57" height="4" rx="1" ry="1" width="4" x="204.40000000000012" y="46.699999999999996"><title>2024-09-14 89.85 mins</title></rect><rect fill="#66be6b" height="4" rx="1" ry="1" width="4" x="204.40000000000012" y="52.1"><title>2024-09-15 59.52 mins</title></rect><rect fill="#ace7ae" height="4" rx="1" ry="1" width="4" x="209.80000000000013" y="19.7"><title>2024-09-16 0.12 mins</title></rect><rect fill="#abe6ad" height="4" rx="1" ry="1" width="4" x="209.80000000000013" y="25.1"><title>2024-09-17 6.33 mins</title></rect><rect fill="#66be6a" height="4" rx="1" ry="1" width="4" x="209.80000000000013" y="30.5"><title>2024-09-18 72.47 mins</title></rect><rect fill="#67bf6c" height="4" rx="1" ry="1" width="4" x="209.80000000000013" y="35.9"><title>2024-09-19 33.38 mins</title></rect><rect fill="#ace7ae" height="4" rx="1" ry="1" width="4" x="209.80000000000013" y="41.300000000000004"><title>2024-09-20 0.18 mins</title></rect><rect fill="#66be6b" height="4" rx="1" ry="1" width="4" x="209.80000000000013" y="46.699999999999996"><title>2024-09-21 60.05 mins</title></rect><rect fill="#aae6ac" height="4" rx="1" ry="1" width="4" x="209.80000000000013" y="52.1"><title>2024-09-22 9.62 mins</title></rect><rect fill="#ace7ae" height="4" rx="1" ry="1" width="4" x="215.20000000000013" y="19.7"><title>2024-09-23 0.18 mins</title></rect><rect fill="#66be6b" height="4" rx="1" ry="1" width="4" x="215.20000000000013" y="25.1"><title>2024-09-24 59.78 mins</title></rect><rect fill="#549F57" height="4" rx="1" ry="1" width="4" x="215.20000000000013" y="30.5"><title>2024-09-25 104.75 mins</title></rect><rect fill="#549F57" height="4" rx="1" ry="1" width="4" x="215.20000000000013" y="35.9"><title>2024-09-26 119.25 mins</title></rect><rect fill="#549F57" height="4" rx="1" ry="1" width="4" x="215.20000000000013" y="41.300000000000004"><title>2024-09-27 157.48 mins</title></rect><rect fill="#66be6b" height="4" rx="1" ry="1" width="4" x="215.20000000000013" y="46.699999999999996"><title>2024-09-28 59.82 mins</title></rect><rect fill="#66be6b" height="4" rx="1" ry="1" width="4" x="215.20000000000013" y="52.1"><title>2024-09-29 59.63 mins</title></rect><rect fill="#67bf6c" height="4" rx="1" ry="1" width="4" x="220.60000000000014" y="19.7"><title>2024-09-30 34.33 mins</title></rect><rect fill="#aae6ac" height="4" rx="1" ry="1" width="4" x="220.60000000000014" y="25.1"><title>2024-10-01 9.08 mins</title></rect><rect fill="#67bf6c" height="4" rx="1" ry="1" width="4" x="220.60000000000014" y="30.5"><title>2024-10-02 44.67 mins</title></rect><rect fill="#ace7ae" height="4" rx="1" ry="1" width="4" x="220.60000000000014" y="35.9"><title>2024-10-03 1.03 mins</title></rect><rect fill="#aae6ac" height="4" rx="1" ry="1" width="4" x="220.60000000000014" y="41.300000000000004"><title>2024-10-04 10.52 mins</title></rect><rect fill="#abe7ad" height="4" rx="1" ry="1" width="4" x="220.60000000000014" y="46.699999999999996"><title>2024-10-05 3.53 mins</title></rect><rect fill="#ace7ae" height="4" rx="1" ry="1" width="4" x="220.60000000000014" y="52.1"><title>2024-10-06 0.05 mins</title></rect><text fill="#000000" style="font-size:2.5px; font-family:Arial" x="226.00000000000014" y="18.3">Oct</text><rect fill="#EBEDF0" height="4" rx="1" ry="1" width="4" x="226.00000000000014" y="19.7"><title>2024-10-07</title></rect><rect fill="#ace7ae" height="4" rx="1" ry="1" width="4" x="226.00000000000014" y="25.1"><title>2024-10-08 0.17 mins</title></rect><rect fill="#ace7ae" height="4" rx="1" ry="1" width="4" x="226.00000000000014" y="30.5"><title>2024-10-09 0.02 mins</title></rect><rect fill="#ace7ae" height="4" rx="1" ry="1" width="4" x="226.00000000000014" y="35.9"><title>2024-10-10 0.03 mins</title></rect><rect fill="#EBEDF0" height="4" rx="1" ry="1" width="4" x="226.00000000000014" y="41.300000000000004"><title>2024-10-11</title></rect><rect fill="#ace7ae" height="4" rx="1" ry="1" width="4" x="226.00000000000014" y="46.699999999999996"><title>2024-10-12 0.03 mins</title></rect><rect fill="#ace7ae" height="4" rx="1" ry="1" width="4" x="226.00000000000014" y="52.1"><title>2024-10-13 0.48 mins</title></rect><rect fill="#ace7ae" height="4" rx="1" ry="1" width="4" x="231.40000000000015" y="19.7"><title>2024-10-14 1.0 mins</title></rect><rect fill="#a9e6ab" height="4" rx="1" ry="1" width="4" x="231.40000000000015" y="25.1"><title>2024-10-15 14.48 mins</title></rect><rect fill="#67bf6b" height="4" rx="1" ry="1" width="4" x="231.40000000000015" y="30.5"><title>2024-10-16 52.93 mins</title></rect><rect fill="#66be6b" height="4" rx="1" ry="1" width="4" x="231.40000000000015" y="35.9"><title>2024-10-17 64.5 mins</title></rect><rect fill="#a9e6ab" height="4" rx="1" ry="1" width="4" x="231.40000000000015" y="41.300000000000004"><title>2024-10-18 16.05 mins</title></rect><rect fill="#66be6b" height="4" rx="1" ry="1" width="4" x="231.40000000000015" y="46.699999999999996"><title>2024-10-19 60.73 mins</title></rect><rect fill="#ace7ae" height="4" rx="1" ry="1" width="4" x="231.40000000000015" y="52.1"><title>2024-10-20 1.28 mins</title></rect><rect fill="#ace7ae" height="4" rx="1" ry="1" width="4" x="236.80000000000015" y="19.7"><title>2024-10-21 0.82 mins</title></rect><rect fill="#EBEDF0" height="4" rx="1" ry="1" width="4" x="236.80000000000015" y="25.1"><title>2024-10-22</title></rect><rect fill="#ace7ae" height="4" rx="1" ry="1" width="4" x="236.80000000000015" y="30.5"><title>2024-10-23 0.08 mins</title></rect><rect fill="#ace7ae" height="4" rx="1" ry="1" width="4" x="236.80000000000015" y="35.9"><title>2024-10-24 0.03 mins</title></rect><rect fill="#EBEDF0" height="4" rx="1" ry="1" width="4" x="236.80000000000015" y="41.300000000000004"><title>2024-10-25</title></rect><rect fill="#ace7ae" height="4" rx="1" ry="1" width="4" x="236.80000000000015" y="46.699999999999996"><title>2024-10-26 0.82 mins</title></rect><rect fill="#aae6ac" height="4" rx="1" ry="1" width="4" x="236.80000000000015" y="52.1"><title>2024-10-27 9.02 mins</title></rect><rect fill="#abe6ad" height="4" rx="1" ry="1" width="4" x="242.20000000000016" y="19.7"><title>2024-10-28 6.22 mins</title></rect><rect fill="#66be6b" height="4" rx="1" ry="1" width="4" x="242.20000000000016" y="25.1"><title>2024-10-29 63.72 mins</title></rect><rect fill="#abe7ad" height="4" rx="1" ry="1" width="4" x="242.20000000000016" y="30.5"><title>2024-10-30 2.9 mins</title></rect><rect fill="#abe7ad" height="4" rx="1" ry="1" width="4" x="242.20000000000016" y="35.9"><title>2024-10-31 4.08 mins</title></rect><rect fill="#ace7ae" height="4" rx="1" ry="1" width="4" x="242.20000000000016" y="41.300000000000004"><title>2024-11-01 0.07 mins</title></rect><rect fill="#ace7ae" height="4" rx="1" ry="1" width="4" x="242.20000000000016" y="46.699999999999996"><title>2024-11-02 1.62 mins</title></rect><rect fill="#ace7ae" height="4" rx="1" ry="1" width="4" x="242.20000000000016" y="52.1"><title>2024-11-03 0.03 mins</title></rect><text fill="#000000" style="font-size:2.5px; font-family:Arial" x="247.60000000000016" y="18.3">Nov</text><rect fill="#ace7ae" height="4" rx="1" ry="1" width="4" x="247.60000000000016" y="19.7"><title>2024-11-04 1.17 mins</title></rect><rect fill="#ace7ae" height="4" rx="1" ry="1" width="4" x="247.60000000000016" y="25.1"><title>2024-11-05 0.03 mins</title></rect><rect fill="#67bf6c" height="4" rx="1" ry="1" width="4" x="247.60000000000016" y="30.5"><title>2024-11-06 47.92 mins</title></rect><rect fill="#a8e5aa" height="4" rx="1" ry="1" width="4" x="247.60000000000016" y="35.9"><title>2024-11-07 23.33 mins</title></rect><rect fill="#aae6ac" height="4" rx="1" ry="1" width="4" x="247.60000000000016" y="41.300000000000004"><title>2024-11-08 12.47 mins</title></rect><rect fill="#ace7ae" height="4" rx="1" ry="1" width="4" x="247.60000000000016" y="46.699999999999996"><title>2024-11-09 1.43 mins</title></rect><rect fill="#ace7ae" height="4" rx="1" ry="1" width="4" x="247.60000000000016" y="52.1"><title>2024-11-10 0.65 mins</title></rect><rect fill="#ace7ae" height="4" rx="1" ry="1" width="4" x="253.00000000000017" y="19.7"><title>2024-11-11 0.05 mins</title></rect><rect fill="#abe7ad" height="4" rx="1" ry="1" width="4" x="253.00000000000017" y="25.1"><title>2024-11-12 3.72 mins</title></rect><rect fill="#ace7ae" height="4" rx="1" ry="1" width="4" x="253.00000000000017" y="30.5"><title>2024-11-13 0.1 mins</title></rect><rect fill="#ace7ae" height="4" rx="1" ry="1" width="4" x="253.00000000000017" y="35.9"><title>2024-11-14 0.05 mins</title></rect><rect fill="#ace7ae" height="4" rx="1" ry="1" width="4" x="253.00000000000017" y="41.300000000000004"><title>2024-11-15 0.18 mins</title></rect><rect fill="#ace7ae" height="4" rx="1" ry="1" width="4" x="253.00000000000017" y="46.699999999999996"><title>2024-11-16 2.08 mins</title></rect><rect fill="#ace7ae" height="4" rx="1" ry="1" width="4" x="253.00000000000017" y="52.1"><title>2024-11-17 0.03 mins</title></rect><rect fill="#ace7ae" height="4" rx="1" ry="1" width="4" x="258.40000000000015" y="19.7"><title>2024-11-18 0.03 mins</title></rect><rect fill="#ace7ae" height="4" rx="1" ry="1" width="4" x="258.40000000000015" y="25.1"><title>2024-11-19 0.15 mins</title></rect><rect fill="#abe7ad" height="4" rx="1" ry="1" width="4" x="258.40000000000015" y="30.5"><title>2024-11-20 5.53 mins</title></rect><rect fill="#ace7ae" height="4" rx="1" ry="1" width="4" x="258.40000000000015" y="35.9"><title>2024-11-21 0.03 mins</title></rect><rect fill="#ace7ae" height="4" rx="1" ry="1" width="4" x="258.40000000000015" y="41.300000000000004"><title>2024-11-22 0.08 mins</title></rect><rect fill="#ace7ae" height="4" rx="1" ry="1" width="4" x="258.40000000000015" y="46.699999999999996"><title>2024-11-23 0.02 mins</title></rect><rect fill="#a8e5aa" height="4" rx="1" ry="1" width="4" x="258.40000000000015" y="52.1"><title>2024-11-24 20.17 mins</title></rect><rect fill="#ace7ae" height="4" rx="1" ry="1" width="4" x="263.8000000000001" y="19.7"><title>2024-11-25 0.33 mins</title></rect><rect fill="#abe6ad" height="4" rx="1" ry="1" width="4" x="263.8000000000001" y="25.1"><title>2024-11-26 7.18 mins</title></rect><rect fill="#abe7ad" height="4" rx="1" ry="1" width="4" x="263.8000000000001" y="30.5"><title>2024-11-27 3.03 mins</title></rect><rect fill="#ace7ae" height="4" rx="1" ry="1" width="4" x="263.8000000000001" y="35.9"><title>2024-11-28 0.08 mins</title></rect><rect fill="#aae6ac" height="4" rx="1" ry="1" width="4" x="263.8000000000001" y="41.300000000000004"><title>2024-11-29 8.83 mins</title></rect><rect fill="#ace7ae" height="4" rx="1" ry="1" width="4" x="263.8000000000001" y="46.699999999999996"><title>2024-11-30 0.02 mins</title></rect><rect fill="#ace7ae" height="4" rx="1" ry="1" width="4" x="263.8000000000001" y="52.1"><title>2024-12-01 0.4 mins</title></rect><text fill="#000000" style="font-size:2.5px; font-family:Arial" x="269.2000000000001" y="18.3">Dec</text><rect fill="#ace7ae" height="4" rx="1" ry="1" width="4" x="269.2000000000001" y="19.7"><title>2024-12-02 0.08 mins</title></rect><rect fill="#ace7ae" height="4" rx="1" ry="1" width="4" x="269.2000000000001" y="25.1"><title>2024-12-03 0.07 mins</title></rect><rect fill="#aae6ac" height="4" rx="1" ry="1" width="4" x="269.2000000000001" y="30.5"><title>2024-12-04 8.6 mins</title></rect><rect fill="#ace7ae" height="4" rx="1" ry="1" width="4" x="269.2000000000001" y="35.9"><title>2024-12-05 0.02 mins</title></rect><rect fill="#ace7ae" height="4" rx="1" ry="1" width="4" x="269.2000000000001" y="41.300000000000004"><title>2024-12-06 0.25 mins</title></rect><rect fill="#ace7ae" height="4" rx="1" ry="1" width="4" x="269.2000000000001" y="46.699999999999996"><title>2024-12-07 0.02 mins</title></rect><rect fill="#a8e5aa" height="4" rx="1" ry="1" width="4" x="269.2000000000001" y="52.1"><title>2024-12-08 21.72 mins</title></rect><rect fill="#ace7ae" height="4" rx="1" ry="1" width="4" x="274.6000000000001" y="19.7"><title>2024-12-09 0.03 mins</title></rect><rect fill="#ace7ae" height="4" rx="1" ry="1" width="4" x="274.6000000000001" y="25.1"><title>2024-12-10 0.02 mins</title></rect><rect fill="#ace7ae" height="4" rx="1" ry="1" width="4" x="274.6000000000001" y="30.5"><title>2024-12-11 0.03 mins</title></rect><rect fill="#ace7ae" height="4" rx="1" ry="1" width="4" x="274.6000000000001" y="35.9"><title>2024-12-12 0.03 mins</title></rect><rect fill="#ace7ae" height="4" rx="1" ry="1" width="4" x="274.6000000000001" y="41.300000000000004"><title>2024-12-13 1.32 mins</title></rect><rect fill="#ace7ae" height="4" rx="1" ry="1" width="4" x="274.6000000000001" y="46.699999999999996"><title>2024-12-14 0.03 mins</title></rect><rect fill="#ace7ae" height="4" rx="1" ry="1" width="4" x="274.6000000000001" y="52.1"><title>2024-12-15 0.1 mins</title></rect><rect fill="#ace7ae" height="4" rx="1" ry="1" width="4" x="280.00000000000006" y="19.7"><title>2024-12-16 0.02 mins</title></rect><rect fill="#abe6ad" height="4" rx="1" ry="1" width="4" x="280.00000000000006" y="25.1"><title>2024-12-17 7.08 mins</title></rect><rect fill="#EBEDF0" height="4" rx="1" ry="1" width="4" x="280.00000000000006" y="30.5"><title>2024-12-18</title></rect><rect fill="#ace7ae" height="4" rx="1" ry="1" width="4" x="280.00000000000006" y="35.9"><title>2024-12-19 0.02 mins</title></rect><rect fill="#aae6ac" height="4" rx="1" ry="1" width="4" x="280.00000000000006" y="41.300000000000004"><title>2024-12-20 8.82 mins</title></rect><rect fill="#67bf6c" height="4" rx="1" ry="1" width="4" x="280.00000000000006" y="46.699999999999996"><title>2024-12-21 36.43 mins</title></rect><rect fill="#66bd6a" height="4" rx="1" ry="1" width="4" x="280.00000000000006" y="52.1"><title>2024-12-22 74.95 mins</title></rect><rect fill="#67bf6c" height="4" rx="1" ry="1" width="4" x="285.40000000000003" y="19.7"><title>2024-12-23 39.57 mins</title></rect><rect fill="#67bf6c" height="4" rx="1" ry="1" width="4" x="285.40000000000003" y="25.1"><title>2024-12-24 33.28 mins</title></rect><rect fill="#a9e6ab" height="4" rx="1" ry="1" width="4" x="285.40000000000003" y="30.5"><title>2024-12-25 16.3 mins</title></rect><rect fill="#a9e5ab" height="4" rx="1" ry="1" width="4" x="285.40000000000003" y="35.9"><title>2024-12-26 18.67 mins</title></rect><rect fill="#EBEDF0" height="4" rx="1" ry="1" width="4" x="285.40000000000003" y="41.300000000000004"><title>2024-12-27</title></rect><rect fill="#EBEDF0" height="4" rx="1" ry="1" width="4" x="285.40000000000003" y="46.699999999999996"><title>2024-12-28</title></rect><rect fill="#EBEDF0" height="4" rx="1" ry="1" width="4" x="285.40000000000003" y="52.1"><title>2024-12-29</title></rect><rect fill="#EBEDF0" height="4" rx="1" ry="1" width="4" x="290.8" y="19.7"><title>2024-12-30</title></rect><rect fill="#EBEDF0" height="4" rx="1" ry="1" width="4" x="290.8" y="25.1"><title>2024-12-31</title></rect></svg>